<svg xmlns="http://www.w3.org/2000/svg" width="24" height="24" viewBox="0 0 100 100" fill="white">
  <!-- Left ear -->
  <polygon points="12,38 22,8 38,32"/>
  <!-- Right ear -->
  <polygon points="88,38 78,8 62,32"/>
  <!-- Head shape -->
  <ellipse cx="50" cy="52" rx="38" ry="34"/>
  <!-- Fluffy cheeks -->
  <ellipse cx="24" cy="62" rx="18" ry="14"/>
  <ellipse cx="76" cy="62" rx="18" ry="14"/>
  <!-- Chin fluff -->
  <ellipse cx="50" cy="82" rx="22" ry="14"/>
  <!-- Goggle band -->
  <rect x="8" y="38" width="84" height="8" rx="4" fill="#333"/>
  <!-- Left goggle -->
  <circle cx="36" cy="48" r="16" fill="#333"/>
  <circle cx="36" cy="48" r="13" fill="white"/>
  <circle cx="36" cy="48" r="10" fill="#555"/>
  <circle cx="33" cy="45" r="3" fill="white" opacity="0.7"/>
  <!-- Right goggle -->
  <circle cx="64" cy="48" r="16" fill="#333"/>
  <circle cx="64" cy="48" r="13" fill="white"/>
  <circle cx="64" cy="48" r="10" fill="#555"/>
  <circle cx="61" cy="45" r="3" fill="white" opacity="0.7"/>
  <!-- Nose -->
  <ellipse cx="50" cy="64" rx="4" ry="3" fill="#333"/>
  <!-- Mouth -->
  <line x1="50" y1="67" x2="50" y2="70" stroke="#333" stroke-width="1.5"/>
  <path d="M44,70 Q50,75 56,70" fill="none" stroke="#333" stroke-width="1.5"/>
</svg>